<?xml version="1.0" encoding="utf-8"?>
<!-- Generator: Adobe Illustrator 16.0.0, SVG Export Plug-In . SVG Version: 6.00 Build 0)  -->
<!DOCTYPE svg PUBLIC "-//W3C//DTD SVG 1.1//EN" "http://www.w3.org/Graphics/SVG/1.1/DTD/svg11.dtd">
<svg version="1.1" id="Calque_1" xmlns="http://www.w3.org/2000/svg" xmlns:xlink="http://www.w3.org/1999/xlink" x="0px" y="0px"
	 width="42.5px" height="36px" viewBox="29 28.5 42.5 36" enable-background="new 29 28.5 42.5 36" xml:space="preserve">
<g opacity="0.8">
	<path fill="none" stroke="#B3B3BB" stroke-width="1.5" stroke-linecap="round" stroke-linejoin="round" d="M36,57.5L40.5,43l16,4.5
		l9-12"/>
	<g>
		<ellipse fill="#F1F1F1" cx="40.61" cy="42.756" rx="3.415" ry="3.317"/>
		<path fill="none" stroke="#B3B3BB" stroke-width="1.5" d="M43.274,42.756c0,1.397-1.172,2.567-2.665,2.567
			s-2.665-1.17-2.665-2.567s1.172-2.567,2.665-2.567S43.274,41.358,43.274,42.756z"/>
	</g>
	<g>
		<ellipse fill="#F1F1F1" cx="56.414" cy="47.317" rx="3.415" ry="3.317"/>
		<path fill="none" stroke="#B3B3BB" stroke-width="1.5" d="M59.079,47.317c0,1.397-1.173,2.567-2.665,2.567
			s-2.664-1.17-2.664-2.567s1.172-2.567,2.664-2.567S59.079,45.92,59.079,47.317z"/>
	</g>
	<g>
		<ellipse fill="#F1F1F1" cx="65.658" cy="35.317" rx="3.415" ry="3.317"/>
		<path fill="none" stroke="#B3B3BB" stroke-width="1.5" d="M68.323,35.317c0,1.397-1.173,2.567-2.665,2.567
			s-2.664-1.17-2.664-2.567c0-1.397,1.172-2.567,2.664-2.567S68.323,33.92,68.323,35.317z"/>
	</g>
	<g>
		<ellipse fill="#F1F1F1" cx="36.341" cy="57.683" rx="3.415" ry="3.317"/>
		<path fill="none" stroke="#B3B3BB" stroke-width="1.5" d="M39.006,57.683c0,1.397-1.172,2.567-2.665,2.567
			s-2.665-1.17-2.665-2.567s1.172-2.567,2.665-2.567S39.006,56.285,39.006,57.683z"/>
	</g>
</g>
</svg>
