<svg width="36" height="38" viewBox="0 0 36 38" fill="none" xmlns="http://www.w3.org/2000/svg">
<g opacity="0.8">
<g filter="url(#filter0_d)">
<path d="M34.7634 15.094H32.1814C31.882 14.0877 31.5078 13.0815 31.0213 12.1126L33.1169 9.98836C33.3414 9.76476 33.4911 9.46662 33.5285 9.13122C33.5285 8.75855 33.4162 8.42314 33.1169 8.16227L29.0755 4.24923C28.851 4.02563 28.5516 3.87656 28.2148 3.83929C27.8406 3.83929 27.5038 3.95109 27.2419 4.24923L25.3335 6.22438C24.3605 5.66538 23.3502 5.21817 22.3399 4.92004V2.23681C22.3399 1.52873 21.7786 0.969727 21.0676 0.969727H15.3797C14.6687 0.969727 14.1074 1.52873 14.1074 2.23681V4.80823C12.9474 5.10637 11.8248 5.59084 10.7396 6.22438L9.05569 4.58463C8.83117 4.36103 8.53181 4.21196 8.19502 4.17469C7.85824 4.17469 7.48404 4.2865 7.2221 4.58463L3.3304 8.60948C3.10588 8.83308 2.9562 9.13122 2.91878 9.46662C2.91878 9.83929 3.03104 10.1747 3.3304 10.4356L5.05173 12.1126C4.52784 13.0815 4.15364 14.0877 3.85428 15.1312H1.27229C0.561302 15.1312 0 15.6902 0 16.3983V22.0256C0 22.7337 0.561302 23.2927 1.27229 23.2927H3.96654C4.30332 24.448 4.82721 25.566 5.46335 26.6095L3.8917 28.212L3.85428 28.2492C3.40524 28.771 3.44266 29.5536 3.8917 30.0008L7.93308 33.9138C8.19502 34.1747 8.49438 34.2865 8.83117 34.2865C9.16795 34.2865 9.50473 34.1747 9.72925 33.9138L11.488 32.125C12.3487 32.5722 13.2467 32.9076 14.1074 33.1312V35.7026C14.1074 36.4107 14.6687 36.9697 15.3797 36.9697H21.0302C21.7411 36.9697 22.3024 36.4107 22.3024 35.7026V33.0194C23.3502 32.684 24.3606 32.2741 25.2586 31.7151L27.2793 33.6902C27.5038 33.9511 27.8406 34.1002 28.2148 34.1002C28.589 34.1002 28.9258 33.9511 29.1503 33.6902L33.042 29.7026C33.304 29.4418 33.4162 29.1436 33.4162 28.8082C33.4162 28.4728 33.2666 28.1747 33.042 27.9138L30.9465 25.8641C31.3581 25.0815 31.6949 24.2617 31.9943 23.33H34.7259C35.4369 23.33 35.9982 22.771 35.9982 22.0629V16.4356C36.0357 15.653 35.4743 15.094 34.7634 15.094ZM34.5388 21.7648H31.4704H31.433C31.3955 21.7648 31.3581 21.7648 31.3581 21.7648C31.3207 21.7648 31.3207 21.7648 31.2833 21.7648C31.2459 21.7648 31.2459 21.7648 31.2084 21.802C31.171 21.802 31.171 21.802 31.1336 21.8393C31.0962 21.8393 31.0962 21.8766 31.0588 21.8766L31.0213 21.9138C30.9839 21.9138 30.9839 21.9511 30.9465 21.9511L30.9091 21.9884C30.9091 22.0256 30.8717 22.0256 30.8717 22.0629C30.8717 22.1002 30.8342 22.1002 30.8342 22.1374C30.8342 22.1747 30.7968 22.1747 30.7968 22.212C30.7968 22.2492 30.7594 22.2492 30.7594 22.2865V22.3238C30.4226 23.5163 30.011 24.5598 29.4497 25.4542C29.4497 25.4915 29.4123 25.4915 29.4123 25.5287C29.4123 25.5287 29.4123 25.566 29.3749 25.566C29.3749 25.6033 29.3374 25.6033 29.3374 25.6405C29.3374 25.6778 29.3374 25.6778 29.3 25.7151C29.3 25.7523 29.3 25.7523 29.3 25.7896C29.3 25.8269 29.3 25.8269 29.3 25.8641C29.3 25.9014 29.3 25.9014 29.3 25.9387C29.3 25.9759 29.3 25.9759 29.3 26.0132C29.3 26.0505 29.3 26.0505 29.3 26.0877C29.3 26.125 29.3 26.125 29.3374 26.1623C29.3374 26.1995 29.3374 26.1995 29.3749 26.2368C29.3749 26.2741 29.4123 26.2741 29.4123 26.3113C29.4123 26.3113 29.4123 26.3486 29.4497 26.3486C29.4871 26.3859 29.5245 26.4231 29.562 26.4604L31.882 28.7337L28.2523 32.4604L26.0445 30.2989L25.9322 30.1871L25.8948 30.1498C25.8574 30.1126 25.8574 30.1126 25.8199 30.1126L25.7825 30.0753C25.7451 30.0753 25.7451 30.038 25.7077 30.038C25.6703 30.038 25.6703 30.038 25.6328 30.0008C25.5954 30.0008 25.5954 30.0008 25.558 29.9635C25.5206 29.9635 25.5206 29.9635 25.4832 29.9635C25.4457 29.9635 25.4457 29.9635 25.4083 29.9635C25.3709 29.9635 25.3709 29.9635 25.3335 29.9635C25.2961 29.9635 25.2961 29.9635 25.2586 29.9635C25.2212 29.9635 25.2212 29.9635 25.1838 30.0008C25.1464 30.0008 25.1464 30.0008 25.109 30.038C25.0715 30.038 25.0715 30.0753 25.0341 30.0753C25.0341 30.0753 24.9967 30.0753 24.9967 30.1126C23.9115 30.8207 22.7141 31.3424 21.4044 31.6778H21.3669C21.3295 31.6778 21.3295 31.6778 21.2921 31.7151C21.2547 31.7151 21.2547 31.7523 21.2173 31.7523C21.1798 31.7523 21.1798 31.7896 21.1424 31.7896C21.105 31.7896 21.105 31.8269 21.105 31.8269L21.0676 31.8641C21.0676 31.8641 21.0302 31.9014 21.0302 31.9387C21.0302 31.9759 20.9927 31.9759 20.9927 32.0132C20.9927 32.0505 20.9553 32.0505 20.9553 32.0877C20.9553 32.125 20.9179 32.125 20.9179 32.1623C20.9179 32.1995 20.9179 32.1995 20.8805 32.2368C20.8805 32.2741 20.8805 32.2741 20.8805 32.3113C20.8805 32.3486 20.8805 32.3486 20.8805 32.3859V32.4231V35.4418H15.6791V32.5349C15.6791 32.4977 15.6791 32.4231 15.6791 32.3859V32.3486C15.6791 32.3113 15.6791 32.2741 15.6416 32.2741C15.6416 32.2741 15.6416 32.2368 15.6042 32.2368C15.6042 32.1995 15.5668 32.1995 15.5668 32.1623C15.5668 32.1623 15.5668 32.125 15.5294 32.125C15.5294 32.0877 15.492 32.0877 15.492 32.0505L15.4545 32.0132C15.4171 31.9759 15.4171 31.9759 15.3797 31.9387C15.3797 31.9387 15.3797 31.9387 15.3423 31.9014C15.3049 31.8641 15.2674 31.8641 15.23 31.8269H15.1926C15.1552 31.8269 15.1552 31.7896 15.1178 31.7896L15.0429 31.7523H15.0055C13.9577 31.5287 12.8725 31.1188 11.7874 30.5225H11.7499C11.7125 30.5225 11.7125 30.4853 11.6751 30.4853C11.6377 30.4853 11.6377 30.4853 11.6003 30.448C11.5628 30.448 11.5628 30.448 11.5254 30.448C11.488 30.448 11.488 30.448 11.4506 30.448C11.4132 30.448 11.4132 30.448 11.3757 30.448C11.3383 30.448 11.3383 30.448 11.3009 30.448C11.2635 30.448 11.2635 30.448 11.2261 30.448C11.1886 30.448 11.1886 30.448 11.1512 30.448C11.1138 30.448 11.1138 30.448 11.0764 30.4853C11.039 30.4853 11.039 30.5225 11.0015 30.5225C10.9641 30.5225 10.9641 30.5598 10.9267 30.5598C10.8893 30.5598 10.8893 30.5971 10.8519 30.5971C10.8519 30.5971 10.8144 30.5971 10.8144 30.6343L8.83117 32.684L5.08915 29.0691L6.81048 27.3176C7.10984 27.1312 7.2221 26.7585 7.10984 26.4231C7.10984 26.4231 7.10984 26.3859 7.07242 26.3859L6.99758 26.2368L6.96016 26.1623C6.13691 24.9697 5.57561 23.6654 5.23883 22.3238V22.2865C5.23883 22.2492 5.23883 22.2492 5.20141 22.212C5.20141 22.1747 5.16399 22.1747 5.16399 22.1374C5.16399 22.1002 5.12657 22.1002 5.12657 22.0629C5.12657 22.0256 5.08915 22.0256 5.08915 22.0256L5.05173 21.9884L5.01431 21.9511C4.97689 21.9511 4.97689 21.9138 4.93947 21.9138C4.90205 21.9138 4.90205 21.8766 4.86463 21.8766C4.82721 21.8766 4.82721 21.8393 4.78979 21.8393C4.75237 21.8393 4.75237 21.8393 4.71494 21.802C4.67752 21.802 4.67752 21.802 4.6401 21.802C4.60268 21.802 4.60268 21.802 4.56526 21.802H4.52784H1.49681V16.6219H4.453C4.49042 16.6219 4.56526 16.6219 4.60268 16.6219H4.6401C4.67752 16.6219 4.71494 16.6219 4.71494 16.5846C4.71494 16.5846 4.75236 16.5846 4.75236 16.5474C4.78978 16.5474 4.78978 16.5101 4.82721 16.5101L4.86463 16.4728C4.90205 16.4728 4.90205 16.4356 4.93947 16.4356L4.97689 16.3983C5.01431 16.361 5.01431 16.361 5.01431 16.3238L5.05173 16.2865C5.05173 16.2492 5.08915 16.2492 5.08915 16.212C5.08915 16.212 5.08915 16.1747 5.12657 16.1747C5.12657 16.1374 5.16399 16.1002 5.16399 16.0629C5.16399 16.0256 5.16399 15.9884 5.16399 15.9884V15.9511C5.46335 14.684 5.94981 13.5287 6.58595 12.4107C6.58595 12.4107 6.58595 12.3735 6.62337 12.3735C6.62337 12.3362 6.6608 12.3362 6.6608 12.2989C6.6608 12.2617 6.6608 12.2617 6.69822 12.2244C6.69822 12.1871 6.69822 12.1871 6.69822 12.1499C6.69822 12.1126 6.69822 12.1126 6.69822 12.0753C6.69822 12.038 6.69822 12.038 6.69822 12.0008C6.69822 11.9635 6.69822 11.9635 6.69822 11.9262C6.69822 11.889 6.69822 11.889 6.69822 11.8517C6.69822 11.8144 6.69822 11.8144 6.6608 11.7772C6.6608 11.7399 6.66079 11.7399 6.62337 11.7026C6.62337 11.6654 6.58595 11.6654 6.58595 11.6281C6.58595 11.5908 6.54854 11.5908 6.54854 11.5536C6.54854 11.5163 6.51111 11.5163 6.51111 11.479L6.47369 11.4418L4.49042 9.54115L8.12018 5.77718L10.066 7.64053C10.2157 7.7896 10.4028 7.9014 10.6273 7.9014C10.6648 7.9014 10.7022 7.9014 10.7022 7.9014C10.7396 7.9014 10.777 7.9014 10.777 7.9014C10.8144 7.9014 10.8519 7.9014 10.8519 7.86414C10.9267 7.82687 10.9641 7.82687 11.039 7.7896L11.0764 7.75233C12.3112 7.00699 13.621 6.44799 14.9307 6.14985C14.9307 6.14985 14.9307 6.14985 14.9681 6.14985H15.0055C15.0429 6.14985 15.0803 6.14985 15.0803 6.11258C15.0803 6.11258 15.1178 6.11258 15.1178 6.07532C15.1552 6.07532 15.1552 6.03805 15.1926 6.03805L15.23 6.00078C15.2674 6.00078 15.2674 5.96352 15.3049 5.96352L15.3423 5.92625C15.3423 5.88898 15.3797 5.88898 15.3797 5.85171L15.4171 5.81445C15.4171 5.77718 15.4545 5.77718 15.4545 5.73991C15.4545 5.73991 15.4545 5.70264 15.492 5.70264C15.492 5.66538 15.5294 5.62811 15.5294 5.62811V5.59085C15.5294 5.55358 15.5294 5.47904 15.5294 5.44178V2.53494H20.7308V5.47904V5.51631C20.7308 5.55358 20.7308 5.59085 20.7308 5.59085C20.7308 5.62811 20.7308 5.62811 20.7308 5.66538C20.7308 5.70265 20.7308 5.70264 20.7682 5.73991C20.7682 5.77718 20.8056 5.77718 20.8056 5.81445C20.8056 5.85171 20.8431 5.85171 20.8431 5.88898C20.8431 5.92625 20.8805 5.92625 20.8805 5.96352C20.8805 6.00078 20.9179 6.00078 20.9179 6.03805L20.9553 6.07532C20.9927 6.07532 20.9927 6.11258 21.0302 6.11258C21.0676 6.11258 21.0676 6.14985 21.105 6.14985C21.1424 6.14985 21.1424 6.18712 21.1798 6.18712C21.2173 6.18712 21.2173 6.22438 21.2547 6.22438H21.2921C22.4895 6.52252 23.687 7.04426 24.7722 7.71507L24.8844 7.7896C24.8844 7.7896 24.8844 7.7896 24.9219 7.7896H24.9593C24.9967 7.7896 25.0341 7.82687 25.0341 7.82687L25.1464 7.9014H25.2586C25.2961 7.9014 25.2961 7.9014 25.3335 7.9014C25.3709 7.9014 25.4083 7.9014 25.4457 7.9014H25.4832C25.5206 7.9014 25.5206 7.9014 25.558 7.86414C25.5954 7.86414 25.5954 7.86414 25.6328 7.86414H25.6703C25.7077 7.86414 25.7451 7.82687 25.7825 7.82687C25.7825 7.82687 25.8199 7.82687 25.8199 7.7896C25.8574 7.75233 25.8574 7.75233 25.8948 7.71507L28.0652 5.47904L31.8072 9.09395L29.562 11.4418C29.562 11.4418 29.562 11.4418 29.5245 11.479C29.5245 11.5163 29.4871 11.5163 29.4871 11.5536C29.4871 11.5536 29.4497 11.5908 29.4497 11.6281C29.4497 11.6654 29.4123 11.6654 29.4123 11.7026C29.4123 11.7399 29.4123 11.7399 29.3749 11.7772C29.3749 11.8144 29.3749 11.8144 29.3374 11.8517C29.3374 11.889 29.3374 11.889 29.3374 11.9262C29.3374 11.9635 29.3374 11.9635 29.3374 12.0008C29.3374 12.038 29.3374 12.038 29.3374 12.0753C29.3374 12.1126 29.3374 12.1126 29.3374 12.1499C29.3374 12.1871 29.3374 12.1871 29.3374 12.2244C29.3374 12.2617 29.3374 12.2617 29.3749 12.2989C29.3749 12.3362 29.4123 12.3362 29.4123 12.3735V12.4107C30.0484 13.5287 30.4975 14.7213 30.7968 15.9138C30.7968 15.9511 30.7968 15.9884 30.8342 16.0256V16.0629C30.8342 16.0629 30.8342 16.0629 30.8342 16.1002C30.8342 16.1374 30.8717 16.1747 30.8717 16.212C30.8717 16.212 30.8717 16.2492 30.9091 16.2492C30.9091 16.2865 30.9465 16.2865 30.9465 16.3238L30.9839 16.361C30.9839 16.3983 31.0213 16.3983 31.0213 16.4356L31.0588 16.4728C31.0962 16.4728 31.0962 16.5101 31.1336 16.5101L31.171 16.5474C31.2084 16.5474 31.2084 16.5846 31.2459 16.5846C31.2459 16.5846 31.2833 16.5846 31.2833 16.6219C31.3207 16.6219 31.3581 16.6592 31.3581 16.6592H31.3955C31.433 16.6592 31.5078 16.6592 31.5452 16.6592H34.464V21.7648H34.5388Z" fill="#B3B3BB"/>
</g>
<g filter="url(#filter1_d)">
<path d="M18.0003 10.4995C12.8778 10.4995 8.72754 14.5277 8.72754 19.4995C8.72754 24.4713 12.8778 28.4995 18.0003 28.4995C23.1227 28.4995 27.273 24.4713 27.273 19.4995C27.273 14.5277 23.1227 10.4995 18.0003 10.4995ZM18.0003 27.0479C13.7004 27.0479 10.2231 23.6729 10.2231 19.4995C10.2231 15.3261 13.7004 11.9511 18.0003 11.9511C22.3001 11.9511 25.7774 15.3261 25.7774 19.4995C25.7774 23.6366 22.3001 27.0479 18.0003 27.0479Z" fill="#B3B3BB"/>
</g>
</g>
<defs>
<filter id="filter0_d" x="0" y="0.969727" width="36" height="37" filterUnits="userSpaceOnUse" color-interpolation-filters="sRGB">
<feFlood flood-opacity="0" result="BackgroundImageFix"/>
<feColorMatrix in="SourceAlpha" type="matrix" values="0 0 0 0 0 0 0 0 0 0 0 0 0 0 0 0 0 0 127 0"/>
<feOffset dy="1"/>
<feColorMatrix type="matrix" values="0 0 0 0 1 0 0 0 0 1 0 0 0 0 1 0 0 0 1 0"/>
<feBlend mode="normal" in2="BackgroundImageFix" result="effect1_dropShadow"/>
<feBlend mode="normal" in="SourceGraphic" in2="effect1_dropShadow" result="shape"/>
</filter>
<filter id="filter1_d" x="8.72754" y="10.4995" width="18.5455" height="19" filterUnits="userSpaceOnUse" color-interpolation-filters="sRGB">
<feFlood flood-opacity="0" result="BackgroundImageFix"/>
<feColorMatrix in="SourceAlpha" type="matrix" values="0 0 0 0 0 0 0 0 0 0 0 0 0 0 0 0 0 0 127 0"/>
<feOffset dy="1"/>
<feColorMatrix type="matrix" values="0 0 0 0 1 0 0 0 0 1 0 0 0 0 1 0 0 0 1 0"/>
<feBlend mode="normal" in2="BackgroundImageFix" result="effect1_dropShadow"/>
<feBlend mode="normal" in="SourceGraphic" in2="effect1_dropShadow" result="shape"/>
</filter>
</defs>
</svg>
