<svg width="37" height="30" viewBox="0 0 37 30" fill="none" xmlns="http://www.w3.org/2000/svg">
<g opacity="0.8" filter="url(#filter0_d)">
<path d="M11.8694 4.17332H36.2952C36.6825 4.17332 37.0005 3.85535 37.0005 3.46801C37.0005 3.08066 36.6825 2.7627 36.2952 2.7627H11.8694C11.482 2.7627 11.1641 3.08066 11.1641 3.46801C11.1641 3.85535 11.482 4.17332 11.8694 4.17332Z" fill="#B3B3BB"/>
<path d="M36.2952 13.8457H11.8694C11.482 13.8457 11.1641 14.1637 11.1641 14.551C11.1641 14.9384 11.482 15.2563 11.8694 15.2563H36.2952C36.6825 15.2563 37.0005 14.9384 37.0005 14.551C37.0005 14.1637 36.6825 13.8457 36.2952 13.8457Z" fill="#B3B3BB"/>
<path d="M36.2952 24.6641H11.8694C11.482 24.6641 11.1641 24.982 11.1641 25.3694C11.1641 25.7567 11.482 26.0747 11.8694 26.0747H36.2952C36.6825 26.0747 37.0005 25.7567 37.0005 25.3694C37.0005 24.982 36.6825 24.6641 36.2952 24.6641Z" fill="#B3B3BB"/>
<path d="M3.46875 0C1.55516 0 0 1.55516 0 3.46875C0 5.38234 1.55516 6.9375 3.46875 6.9375C5.38234 6.9375 6.9375 5.38234 6.9375 3.46875C6.9375 1.55516 5.38234 0 3.46875 0ZM3.46875 5.52688C2.33563 5.52688 1.41063 4.60188 1.41063 3.46875C1.41063 2.33563 2.33563 1.41063 3.46875 1.41063C4.60188 1.41063 5.52688 2.33563 5.52688 3.46875C5.52688 4.60188 4.60188 5.52688 3.46875 5.52688Z" fill="#B3B3BB"/>
<path d="M3.46875 11.0889C1.55516 11.0889 0 12.644 0 14.5576C0 16.4712 1.55516 18.0264 3.46875 18.0264C5.38234 18.0264 6.9375 16.4712 6.9375 14.5576C6.9375 12.644 5.38234 11.0889 3.46875 11.0889ZM3.46875 16.61C2.33563 16.61 1.41063 15.685 1.41063 14.5518C1.41063 13.4187 2.33563 12.4937 3.46875 12.4937C4.60188 12.4937 5.52688 13.4187 5.52688 14.5518C5.52688 15.6907 4.60188 16.61 3.46875 16.61Z" fill="#B3B3BB"/>
<path d="M3.46875 21.9004C1.55516 21.9004 0 23.4555 0 25.3691C0 27.2827 1.55516 28.8379 3.46875 28.8379C5.38234 28.8379 6.9375 27.2827 6.9375 25.3691C6.9375 23.4555 5.38234 21.9004 3.46875 21.9004ZM3.46875 27.4273C2.33563 27.4273 1.41063 26.5023 1.41063 25.3691C1.41063 24.236 2.33563 23.311 3.46875 23.311C4.60188 23.311 5.52688 24.236 5.52688 25.3691C5.52688 26.5023 4.60188 27.4273 3.46875 27.4273Z" fill="#B3B3BB"/>
</g>
<defs>
<filter id="filter0_d" x="0" y="0" width="37.0005" height="29.8379" filterUnits="userSpaceOnUse" color-interpolation-filters="sRGB">
<feFlood flood-opacity="0" result="BackgroundImageFix"/>
<feColorMatrix in="SourceAlpha" type="matrix" values="0 0 0 0 0 0 0 0 0 0 0 0 0 0 0 0 0 0 127 0"/>
<feOffset dy="1"/>
<feColorMatrix type="matrix" values="0 0 0 0 1 0 0 0 0 1 0 0 0 0 1 0 0 0 1 0"/>
<feBlend mode="normal" in2="BackgroundImageFix" result="effect1_dropShadow"/>
<feBlend mode="normal" in="SourceGraphic" in2="effect1_dropShadow" result="shape"/>
</filter>
</defs>
</svg>
