<svg width="37" height="29" viewBox="0 0 37 29" fill="none" xmlns="http://www.w3.org/2000/svg">
<g opacity="0.8" filter="url(#filter0_d)">
<path d="M11.9529 15.1111C5.36277 15.1111 0 20.4739 0 27.064C0 27.5096 0.36742 27.877 0.813015 27.877H23.0928C23.5384 27.877 23.9058 27.5096 23.9058 27.064C23.9058 20.4739 18.543 15.1111 11.9529 15.1111ZM1.6573 26.251C2.07163 20.9351 6.53539 16.7371 11.9529 16.7371C17.3704 16.7371 21.8342 20.9351 22.2485 26.251H1.6573Z" fill="#FFBD59"/>
<path d="M11.7574 14.0402C15.627 14.0402 18.7775 10.8897 18.7775 7.02008C18.7775 3.15043 15.627 0 11.7574 0C7.88774 0 4.7373 3.15043 4.7373 7.02008C4.7373 10.8897 7.88774 14.0402 11.7574 14.0402ZM11.7574 1.62603C14.728 1.62603 17.1514 4.04163 17.1514 7.02008C17.1514 9.99071 14.728 12.4141 11.7574 12.4141C8.78675 12.4141 6.36334 9.99853 6.36334 7.02008C6.36334 4.04163 8.77893 1.62603 11.7574 1.62603Z" fill="#FFBD59"/>
<path d="M27.9087 17.9724C26.2905 17.9724 24.6957 18.4024 23.2964 19.2232C22.9055 19.4499 22.7805 19.9502 23.0072 20.3333C23.2339 20.7242 23.7342 20.8492 24.1172 20.6225C25.2586 19.9502 26.5719 19.5906 27.9009 19.5906C31.7471 19.5906 34.921 22.5065 35.3275 26.2511H25.8918C25.4462 26.2511 25.0788 26.6185 25.0788 27.0641C25.0788 27.5097 25.4462 27.8771 25.8918 27.8771H36.1874C36.633 27.8771 37.0004 27.5097 37.0004 27.0641C37.0004 22.0453 32.9197 17.9724 27.9087 17.9724Z" fill="#FFBD59"/>
<path d="M28.0493 16.6748C31.0434 16.6748 33.4747 14.2436 33.4747 11.2495C33.4747 8.25545 31.0434 5.82422 28.0493 5.82422C25.0553 5.82422 22.624 8.25545 22.624 11.2495C22.624 14.2358 25.0553 16.6748 28.0493 16.6748ZM28.0493 7.44243C30.1444 7.44243 31.8486 9.14664 31.8486 11.2417C31.8486 13.3368 30.1444 15.041 28.0493 15.041C25.9543 15.041 24.2501 13.3368 24.2501 11.2417C24.2501 9.15445 25.9543 7.44243 28.0493 7.44243Z" fill="#FFBD59"/>
</g>
<defs>
<filter id="filter0_d" x="0" y="0" width="37.0004" height="28.8771" filterUnits="userSpaceOnUse" color-interpolation-filters="sRGB">
<feFlood flood-opacity="0" result="BackgroundImageFix"/>
<feColorMatrix in="SourceAlpha" type="matrix" values="0 0 0 0 0 0 0 0 0 0 0 0 0 0 0 0 0 0 127 0"/>
<feOffset dy="1"/>
<feColorMatrix type="matrix" values="0 0 0 0 1 0 0 0 0 1 0 0 0 0 1 0 0 0 1 0"/>
<feBlend mode="normal" in2="BackgroundImageFix" result="effect1_dropShadow"/>
<feBlend mode="normal" in="SourceGraphic" in2="effect1_dropShadow" result="shape"/>
</filter>
</defs>
</svg>
