<svg width="38" height="30" viewBox="0 0 38 30" fill="none" xmlns="http://www.w3.org/2000/svg">
<g opacity="0.8" filter="url(#filter0_d)">
<path d="M4 25.5L8.5 11L24.5 15.5L33.5 3.5" stroke="#FFBD59" stroke-width="1.5" stroke-linecap="round" stroke-linejoin="round"/>
<path d="M11.2746 10.7558C11.2746 12.1532 10.1022 13.3229 8.60995 13.3229C7.11767 13.3229 5.94531 12.1532 5.94531 10.7558C5.94531 9.35838 7.11767 8.18872 8.60995 8.18872C10.1022 8.18872 11.2746 9.35838 11.2746 10.7558Z" fill="#F1F1F1" stroke="#FFBD59" stroke-width="1.5"/>
<path d="M27.0793 15.3171C27.0793 16.7145 25.9069 17.8841 24.4146 17.8841C22.9224 17.8841 21.75 16.7145 21.75 15.3171C21.75 13.9197 22.9224 12.75 24.4146 12.75C25.9069 12.75 27.0793 13.9197 27.0793 15.3171Z" fill="#F1F1F1" stroke="#FFBD59" stroke-width="1.5"/>
<path d="M36.3234 3.31707C36.3234 4.71448 35.1511 5.88414 33.6588 5.88414C32.1665 5.88414 30.9941 4.71448 30.9941 3.31707C30.9941 1.91966 32.1665 0.75 33.6588 0.75C35.1511 0.75 36.3234 1.91966 36.3234 3.31707Z" fill="#F1F1F1" stroke="#FFBD59" stroke-width="1.5"/>
<path d="M7.00603 25.683C7.00603 27.0804 5.83367 28.2501 4.34139 28.2501C2.84911 28.2501 1.67676 27.0804 1.67676 25.683C1.67676 24.2856 2.84911 23.116 4.34139 23.116C5.83367 23.116 7.00603 24.2856 7.00603 25.683Z" fill="#F1F1F1" stroke="#FFBD59" stroke-width="1.5"/>
</g>
<defs>
<filter id="filter0_d" x="0.926758" y="0" width="36.1467" height="30.0001" filterUnits="userSpaceOnUse" color-interpolation-filters="sRGB">
<feFlood flood-opacity="0" result="BackgroundImageFix"/>
<feColorMatrix in="SourceAlpha" type="matrix" values="0 0 0 0 0 0 0 0 0 0 0 0 0 0 0 0 0 0 127 0"/>
<feOffset dy="1"/>
<feColorMatrix type="matrix" values="0 0 0 0 1 0 0 0 0 1 0 0 0 0 1 0 0 0 1 0"/>
<feBlend mode="normal" in2="BackgroundImageFix" result="effect1_dropShadow"/>
<feBlend mode="normal" in="SourceGraphic" in2="effect1_dropShadow" result="shape"/>
</filter>
</defs>
</svg>
